<mxfile host="app.diagrams.net" modified="2023-10-25T09:03:24.755Z" agent="Mozilla/5.0 (Windows NT 10.0; Win64; x64) AppleWebKit/537.36 (KHTML, like Gecko) Chrome/118.0.0.0 Safari/537.36" etag="-ALTUx4Zn6GXxvWF0s74" version="22.0.7" type="device">
  <diagram name="Page-1" id="TnXHKUFaA7Sa9w_C5nAh">
    <mxGraphModel dx="2656" dy="1271" grid="1" gridSize="10" guides="1" tooltips="1" connect="1" arrows="1" fold="1" page="1" pageScale="1" pageWidth="2339" pageHeight="3300" math="0" shadow="0">
      <root>
        <mxCell id="0" />
        <mxCell id="1" parent="0" />
        <mxCell id="UTa9K4Zamujy0nshikOh-2" value="" style="whiteSpace=wrap;html=1;aspect=fixed;" vertex="1" parent="1">
          <mxGeometry x="190" y="1310" width="1210" height="1210" as="geometry" />
        </mxCell>
        <mxCell id="UTa9K4Zamujy0nshikOh-1" value="" style="whiteSpace=wrap;html=1;aspect=fixed;" vertex="1" parent="1">
          <mxGeometry x="210" y="170" width="1080" height="1080" as="geometry" />
        </mxCell>
        <mxCell id="tAeaAUWml3lCQ0p2ullZ-1" value="Communicate with Mentor" style="ellipse;whiteSpace=wrap;html=1;" parent="1" vertex="1">
          <mxGeometry x="310" y="850" width="120" height="80" as="geometry" />
        </mxCell>
        <mxCell id="tAeaAUWml3lCQ0p2ullZ-2" value="Intern" style="shape=umlActor;verticalLabelPosition=bottom;verticalAlign=top;html=1;outlineConnect=0;" parent="1" vertex="1">
          <mxGeometry x="80" y="720" width="30" height="60" as="geometry" />
        </mxCell>
        <mxCell id="tAeaAUWml3lCQ0p2ullZ-3" value="Provide Feedback" style="ellipse;whiteSpace=wrap;html=1;" parent="1" vertex="1">
          <mxGeometry x="310" y="1140" width="120" height="80" as="geometry" />
        </mxCell>
        <mxCell id="tAeaAUWml3lCQ0p2ullZ-4" value="Track Application Status" style="ellipse;whiteSpace=wrap;html=1;" parent="1" vertex="1">
          <mxGeometry x="310" y="280" width="120" height="80" as="geometry" />
        </mxCell>
        <mxCell id="tAeaAUWml3lCQ0p2ullZ-5" value="Access Learning Resources" style="ellipse;whiteSpace=wrap;html=1;" parent="1" vertex="1">
          <mxGeometry x="310" y="570" width="120" height="80" as="geometry" />
        </mxCell>
        <mxCell id="tAeaAUWml3lCQ0p2ullZ-6" value="Authenticate" style="ellipse;whiteSpace=wrap;html=1;" parent="1" vertex="1">
          <mxGeometry x="750" y="710" width="120" height="80" as="geometry" />
        </mxCell>
        <mxCell id="tAeaAUWml3lCQ0p2ullZ-8" value="" style="endArrow=classic;html=1;rounded=0;exitX=0;exitY=0.5;exitDx=0;exitDy=0;" parent="1" source="tAeaAUWml3lCQ0p2ullZ-14" target="tAeaAUWml3lCQ0p2ullZ-6" edge="1">
          <mxGeometry width="50" height="50" relative="1" as="geometry">
            <mxPoint x="970" y="810" as="sourcePoint" />
            <mxPoint x="1190" y="620" as="targetPoint" />
          </mxGeometry>
        </mxCell>
        <mxCell id="tAeaAUWml3lCQ0p2ullZ-9" value="Authenticate via email" style="ellipse;whiteSpace=wrap;html=1;" parent="1" vertex="1">
          <mxGeometry x="1130" y="650" width="120" height="80" as="geometry" />
        </mxCell>
        <mxCell id="tAeaAUWml3lCQ0p2ullZ-10" value="Include" style="endArrow=classic;html=1;rounded=0;exitX=1;exitY=0.5;exitDx=0;exitDy=0;dashed=1;dashPattern=8 8;entryX=0;entryY=0.5;entryDx=0;entryDy=0;" parent="1" source="tAeaAUWml3lCQ0p2ullZ-5" target="tAeaAUWml3lCQ0p2ullZ-6" edge="1">
          <mxGeometry width="50" height="50" relative="1" as="geometry">
            <mxPoint x="430" y="570" as="sourcePoint" />
            <mxPoint x="710" y="730" as="targetPoint" />
          </mxGeometry>
        </mxCell>
        <mxCell id="tAeaAUWml3lCQ0p2ullZ-11" value="Include" style="endArrow=classic;html=1;rounded=0;exitX=1;exitY=0.5;exitDx=0;exitDy=0;dashed=1;dashPattern=8 8;entryX=0;entryY=0;entryDx=0;entryDy=0;" parent="1" source="tAeaAUWml3lCQ0p2ullZ-4" target="tAeaAUWml3lCQ0p2ullZ-6" edge="1">
          <mxGeometry width="50" height="50" relative="1" as="geometry">
            <mxPoint x="430" y="410" as="sourcePoint" />
            <mxPoint x="758" y="531" as="targetPoint" />
          </mxGeometry>
        </mxCell>
        <mxCell id="tAeaAUWml3lCQ0p2ullZ-12" value="Include" style="endArrow=classic;html=1;rounded=0;dashed=1;dashPattern=8 8;entryX=0;entryY=1;entryDx=0;entryDy=0;exitX=1;exitY=0.5;exitDx=0;exitDy=0;" parent="1" source="tAeaAUWml3lCQ0p2ullZ-3" target="tAeaAUWml3lCQ0p2ullZ-6" edge="1">
          <mxGeometry width="50" height="50" relative="1" as="geometry">
            <mxPoint x="540" y="980" as="sourcePoint" />
            <mxPoint x="758" y="881" as="targetPoint" />
          </mxGeometry>
        </mxCell>
        <mxCell id="tAeaAUWml3lCQ0p2ullZ-13" value="Include" style="endArrow=classic;html=1;rounded=0;exitX=1;exitY=0.5;exitDx=0;exitDy=0;dashed=1;dashPattern=8 8;entryX=0;entryY=0.5;entryDx=0;entryDy=0;" parent="1" source="tAeaAUWml3lCQ0p2ullZ-1" target="tAeaAUWml3lCQ0p2ullZ-6" edge="1">
          <mxGeometry width="50" height="50" relative="1" as="geometry">
            <mxPoint x="460" y="640" as="sourcePoint" />
            <mxPoint x="690" y="770" as="targetPoint" />
          </mxGeometry>
        </mxCell>
        <mxCell id="tAeaAUWml3lCQ0p2ullZ-14" value="Authenticate via mobile number" style="ellipse;whiteSpace=wrap;html=1;" parent="1" vertex="1">
          <mxGeometry x="1130" y="770" width="120" height="80" as="geometry" />
        </mxCell>
        <mxCell id="tAeaAUWml3lCQ0p2ullZ-15" value="" style="endArrow=classic;html=1;rounded=0;exitX=0;exitY=0.5;exitDx=0;exitDy=0;" parent="1" source="tAeaAUWml3lCQ0p2ullZ-9" target="tAeaAUWml3lCQ0p2ullZ-6" edge="1">
          <mxGeometry width="50" height="50" relative="1" as="geometry">
            <mxPoint x="1130" y="860" as="sourcePoint" />
            <mxPoint x="870" y="800" as="targetPoint" />
          </mxGeometry>
        </mxCell>
        <mxCell id="tAeaAUWml3lCQ0p2ullZ-16" value="" style="endArrow=none;html=1;rounded=0;entryX=1;entryY=0.5;entryDx=0;entryDy=0;endFill=0;exitX=0;exitY=0.5;exitDx=0;exitDy=0;" parent="1" source="tAeaAUWml3lCQ0p2ullZ-17" target="tAeaAUWml3lCQ0p2ullZ-9" edge="1">
          <mxGeometry width="50" height="50" relative="1" as="geometry">
            <mxPoint x="1420" y="690" as="sourcePoint" />
            <mxPoint x="1250" y="741" as="targetPoint" />
          </mxGeometry>
        </mxCell>
        <mxCell id="tAeaAUWml3lCQ0p2ullZ-17" value="Email authentication services" style="rounded=0;whiteSpace=wrap;html=1;" parent="1" vertex="1">
          <mxGeometry x="1420" y="600" width="120" height="60" as="geometry" />
        </mxCell>
        <mxCell id="tAeaAUWml3lCQ0p2ullZ-18" value="Mobile authentication services" style="rounded=0;whiteSpace=wrap;html=1;" parent="1" vertex="1">
          <mxGeometry x="1420" y="840" width="120" height="60" as="geometry" />
        </mxCell>
        <mxCell id="tAeaAUWml3lCQ0p2ullZ-19" value="" style="endArrow=none;html=1;rounded=0;entryX=1;entryY=0.5;entryDx=0;entryDy=0;endFill=0;exitX=0;exitY=0.5;exitDx=0;exitDy=0;" parent="1" source="tAeaAUWml3lCQ0p2ullZ-18" target="tAeaAUWml3lCQ0p2ullZ-14" edge="1">
          <mxGeometry width="50" height="50" relative="1" as="geometry">
            <mxPoint x="1430" y="690" as="sourcePoint" />
            <mxPoint x="1260" y="700" as="targetPoint" />
          </mxGeometry>
        </mxCell>
        <mxCell id="tAeaAUWml3lCQ0p2ullZ-20" value="" style="endArrow=none;html=1;rounded=0;entryX=1;entryY=0.5;entryDx=0;entryDy=0;endFill=0;exitX=0;exitY=0.5;exitDx=0;exitDy=0;" parent="1" source="tAeaAUWml3lCQ0p2ullZ-22" target="tAeaAUWml3lCQ0p2ullZ-14" edge="1">
          <mxGeometry width="50" height="50" relative="1" as="geometry">
            <mxPoint x="1740" y="770" as="sourcePoint" />
            <mxPoint x="1570" y="780" as="targetPoint" />
          </mxGeometry>
        </mxCell>
        <mxCell id="tAeaAUWml3lCQ0p2ullZ-21" value="" style="endArrow=none;html=1;rounded=0;entryX=1;entryY=0.5;entryDx=0;entryDy=0;endFill=0;exitX=0;exitY=0.5;exitDx=0;exitDy=0;" parent="1" source="tAeaAUWml3lCQ0p2ullZ-22" target="tAeaAUWml3lCQ0p2ullZ-9" edge="1">
          <mxGeometry width="50" height="50" relative="1" as="geometry">
            <mxPoint x="1680" y="710" as="sourcePoint" />
            <mxPoint x="1280" y="720" as="targetPoint" />
          </mxGeometry>
        </mxCell>
        <mxCell id="tAeaAUWml3lCQ0p2ullZ-22" value="Organization authentication services" style="rounded=0;whiteSpace=wrap;html=1;" parent="1" vertex="1">
          <mxGeometry x="1420" y="720" width="120" height="60" as="geometry" />
        </mxCell>
        <mxCell id="tAeaAUWml3lCQ0p2ullZ-23" value="" style="endArrow=none;html=1;rounded=0;endFill=0;exitX=0;exitY=0.5;exitDx=0;exitDy=0;" parent="1" source="tAeaAUWml3lCQ0p2ullZ-5" edge="1">
          <mxGeometry width="50" height="50" relative="1" as="geometry">
            <mxPoint x="190" y="580" as="sourcePoint" />
            <mxPoint x="120" y="760" as="targetPoint" />
          </mxGeometry>
        </mxCell>
        <mxCell id="tAeaAUWml3lCQ0p2ullZ-24" value="" style="endArrow=none;html=1;rounded=0;endFill=0;exitX=0;exitY=0.5;exitDx=0;exitDy=0;" parent="1" source="tAeaAUWml3lCQ0p2ullZ-4" edge="1">
          <mxGeometry width="50" height="50" relative="1" as="geometry">
            <mxPoint x="250" y="390" as="sourcePoint" />
            <mxPoint x="120" y="760" as="targetPoint" />
          </mxGeometry>
        </mxCell>
        <mxCell id="tAeaAUWml3lCQ0p2ullZ-25" value="" style="endArrow=none;html=1;rounded=0;endFill=0;exitX=0;exitY=0.5;exitDx=0;exitDy=0;" parent="1" source="tAeaAUWml3lCQ0p2ullZ-1" edge="1">
          <mxGeometry width="50" height="50" relative="1" as="geometry">
            <mxPoint x="350" y="770" as="sourcePoint" />
            <mxPoint x="120" y="760" as="targetPoint" />
          </mxGeometry>
        </mxCell>
        <mxCell id="tAeaAUWml3lCQ0p2ullZ-26" value="" style="endArrow=none;html=1;rounded=0;endFill=0;exitX=0;exitY=0.5;exitDx=0;exitDy=0;" parent="1" source="tAeaAUWml3lCQ0p2ullZ-3" edge="1">
          <mxGeometry width="50" height="50" relative="1" as="geometry">
            <mxPoint x="240" y="1119.6969696969697" as="sourcePoint" />
            <mxPoint x="120" y="760" as="targetPoint" />
          </mxGeometry>
        </mxCell>
        <mxCell id="tAeaAUWml3lCQ0p2ullZ-28" value="View Programs" style="ellipse;whiteSpace=wrap;html=1;" parent="1" vertex="1">
          <mxGeometry x="750" y="570" width="120" height="80" as="geometry" />
        </mxCell>
        <mxCell id="tAeaAUWml3lCQ0p2ullZ-29" value="Attend Meeting" style="ellipse;whiteSpace=wrap;html=1;" parent="1" vertex="1">
          <mxGeometry x="1130" y="400" width="120" height="80" as="geometry" />
        </mxCell>
        <mxCell id="tAeaAUWml3lCQ0p2ullZ-30" value="Take Assessment Exam" style="ellipse;whiteSpace=wrap;html=1;" parent="1" vertex="1">
          <mxGeometry x="960" y="200" width="120" height="80" as="geometry" />
        </mxCell>
        <mxCell id="tAeaAUWml3lCQ0p2ullZ-31" value="Track Progress" style="ellipse;whiteSpace=wrap;html=1;" parent="1" vertex="1">
          <mxGeometry x="800" y="200" width="120" height="80" as="geometry" />
        </mxCell>
        <mxCell id="tAeaAUWml3lCQ0p2ullZ-32" value="Download Materials" style="ellipse;whiteSpace=wrap;html=1;" parent="1" vertex="1">
          <mxGeometry x="1080" y="280" width="120" height="80" as="geometry" />
        </mxCell>
        <mxCell id="tAeaAUWml3lCQ0p2ullZ-34" value="Extend" style="endArrow=classic;html=1;rounded=0;dashed=1;dashPattern=8 8;exitX=0.5;exitY=1;exitDx=0;exitDy=0;entryX=0.5;entryY=0;entryDx=0;entryDy=0;" parent="1" source="tAeaAUWml3lCQ0p2ullZ-31" target="tAeaAUWml3lCQ0p2ullZ-28" edge="1">
          <mxGeometry width="50" height="50" relative="1" as="geometry">
            <mxPoint x="850" y="360" as="sourcePoint" />
            <mxPoint x="780" y="530" as="targetPoint" />
          </mxGeometry>
        </mxCell>
        <mxCell id="tAeaAUWml3lCQ0p2ullZ-35" value="Extend" style="endArrow=classic;html=1;rounded=0;dashed=1;dashPattern=8 8;" parent="1" source="tAeaAUWml3lCQ0p2ullZ-30" target="tAeaAUWml3lCQ0p2ullZ-28" edge="1">
          <mxGeometry width="50" height="50" relative="1" as="geometry">
            <mxPoint x="950" y="295" as="sourcePoint" />
            <mxPoint x="900" y="585" as="targetPoint" />
          </mxGeometry>
        </mxCell>
        <mxCell id="tAeaAUWml3lCQ0p2ullZ-36" value="Extend" style="endArrow=classic;html=1;rounded=0;dashed=1;dashPattern=8 8;exitX=0;exitY=1;exitDx=0;exitDy=0;entryX=1;entryY=0;entryDx=0;entryDy=0;" parent="1" source="tAeaAUWml3lCQ0p2ullZ-32" target="tAeaAUWml3lCQ0p2ullZ-28" edge="1">
          <mxGeometry width="50" height="50" relative="1" as="geometry">
            <mxPoint x="880" y="300" as="sourcePoint" />
            <mxPoint x="830" y="590" as="targetPoint" />
          </mxGeometry>
        </mxCell>
        <mxCell id="tAeaAUWml3lCQ0p2ullZ-37" value="Extend" style="endArrow=classic;html=1;rounded=0;dashed=1;dashPattern=8 8;exitX=0;exitY=0.5;exitDx=0;exitDy=0;entryX=1;entryY=0.5;entryDx=0;entryDy=0;" parent="1" source="tAeaAUWml3lCQ0p2ullZ-29" target="tAeaAUWml3lCQ0p2ullZ-28" edge="1">
          <mxGeometry width="50" height="50" relative="1" as="geometry">
            <mxPoint x="890" y="310" as="sourcePoint" />
            <mxPoint x="840" y="600" as="targetPoint" />
          </mxGeometry>
        </mxCell>
        <mxCell id="tAeaAUWml3lCQ0p2ullZ-38" value="Request Feedback" style="ellipse;whiteSpace=wrap;html=1;" parent="1" vertex="1">
          <mxGeometry x="750" y="850" width="120" height="80" as="geometry" />
        </mxCell>
        <mxCell id="tAeaAUWml3lCQ0p2ullZ-41" value="Schedule Meeting" style="ellipse;whiteSpace=wrap;html=1;" parent="1" vertex="1">
          <mxGeometry x="750" y="940" width="120" height="80" as="geometry" />
        </mxCell>
        <mxCell id="tAeaAUWml3lCQ0p2ullZ-43" value="Extend" style="endArrow=classic;html=1;rounded=0;dashed=1;dashPattern=8 8;exitX=0;exitY=0.5;exitDx=0;exitDy=0;entryX=1;entryY=1;entryDx=0;entryDy=0;" parent="1" source="tAeaAUWml3lCQ0p2ullZ-38" target="tAeaAUWml3lCQ0p2ullZ-1" edge="1">
          <mxGeometry width="50" height="50" relative="1" as="geometry">
            <mxPoint x="720" y="800" as="sourcePoint" />
            <mxPoint x="670" y="1090" as="targetPoint" />
          </mxGeometry>
        </mxCell>
        <mxCell id="tAeaAUWml3lCQ0p2ullZ-44" value="Extend" style="endArrow=classic;html=1;rounded=0;dashed=1;dashPattern=8 8;exitX=0;exitY=0.5;exitDx=0;exitDy=0;entryX=1;entryY=1;entryDx=0;entryDy=0;" parent="1" source="tAeaAUWml3lCQ0p2ullZ-41" target="tAeaAUWml3lCQ0p2ullZ-1" edge="1">
          <mxGeometry width="50" height="50" relative="1" as="geometry">
            <mxPoint x="760" y="900" as="sourcePoint" />
            <mxPoint x="422" y="928" as="targetPoint" />
          </mxGeometry>
        </mxCell>
        <mxCell id="tAeaAUWml3lCQ0p2ullZ-45" value="Extend" style="endArrow=classic;html=1;rounded=0;dashed=1;dashPattern=8 8;entryX=1;entryY=0;entryDx=0;entryDy=0;exitX=0;exitY=1;exitDx=0;exitDy=0;" parent="1" source="tAeaAUWml3lCQ0p2ullZ-47" target="tAeaAUWml3lCQ0p2ullZ-5" edge="1">
          <mxGeometry width="50" height="50" relative="1" as="geometry">
            <mxPoint x="620" y="350" as="sourcePoint" />
            <mxPoint x="480" y="570" as="targetPoint" />
          </mxGeometry>
        </mxCell>
        <mxCell id="tAeaAUWml3lCQ0p2ullZ-46" value="Extend" style="endArrow=classic;html=1;rounded=0;dashed=1;dashPattern=8 8;exitX=0;exitY=0.5;exitDx=0;exitDy=0;entryX=1;entryY=0;entryDx=0;entryDy=0;" parent="1" source="tAeaAUWml3lCQ0p2ullZ-28" target="tAeaAUWml3lCQ0p2ullZ-5" edge="1">
          <mxGeometry width="50" height="50" relative="1" as="geometry">
            <mxPoint x="670" y="530" as="sourcePoint" />
            <mxPoint x="440" y="590" as="targetPoint" />
          </mxGeometry>
        </mxCell>
        <mxCell id="tAeaAUWml3lCQ0p2ullZ-47" value="Apply for Program" style="ellipse;whiteSpace=wrap;html=1;" parent="1" vertex="1">
          <mxGeometry x="640" y="400" width="120" height="80" as="geometry" />
        </mxCell>
        <mxCell id="tAeaAUWml3lCQ0p2ullZ-48" value="Mentor" style="shape=umlActor;verticalLabelPosition=bottom;verticalAlign=top;html=1;outlineConnect=0;" parent="1" vertex="1">
          <mxGeometry x="1050" y="950" width="30" height="60" as="geometry" />
        </mxCell>
        <mxCell id="tAeaAUWml3lCQ0p2ullZ-49" value="" style="endArrow=none;html=1;rounded=0;entryX=1;entryY=0.5;entryDx=0;entryDy=0;endFill=0;" parent="1" source="tAeaAUWml3lCQ0p2ullZ-48" target="tAeaAUWml3lCQ0p2ullZ-41" edge="1">
          <mxGeometry width="50" height="50" relative="1" as="geometry">
            <mxPoint x="1060" y="1030" as="sourcePoint" />
            <mxPoint x="890" y="970" as="targetPoint" />
          </mxGeometry>
        </mxCell>
        <mxCell id="tAeaAUWml3lCQ0p2ullZ-53" value="Communicate with Interns" style="ellipse;whiteSpace=wrap;html=1;" parent="1" vertex="1">
          <mxGeometry x="340" y="2120" width="120" height="80" as="geometry" />
        </mxCell>
        <mxCell id="tAeaAUWml3lCQ0p2ullZ-54" value="Mentor" style="shape=umlActor;verticalLabelPosition=bottom;verticalAlign=top;html=1;outlineConnect=0;" parent="1" vertex="1">
          <mxGeometry x="110" y="1990" width="30" height="60" as="geometry" />
        </mxCell>
        <mxCell id="tAeaAUWml3lCQ0p2ullZ-55" value="View Interns Progress" style="ellipse;whiteSpace=wrap;html=1;" parent="1" vertex="1">
          <mxGeometry x="340" y="2410" width="120" height="80" as="geometry" />
        </mxCell>
        <mxCell id="tAeaAUWml3lCQ0p2ullZ-56" value="Manage Internship Applications" style="ellipse;whiteSpace=wrap;html=1;" parent="1" vertex="1">
          <mxGeometry x="340" y="1550" width="120" height="80" as="geometry" />
        </mxCell>
        <mxCell id="tAeaAUWml3lCQ0p2ullZ-57" value="Manage Internship Programs" style="ellipse;whiteSpace=wrap;html=1;" parent="1" vertex="1">
          <mxGeometry x="340" y="1840" width="120" height="80" as="geometry" />
        </mxCell>
        <mxCell id="tAeaAUWml3lCQ0p2ullZ-58" value="Authenticate" style="ellipse;whiteSpace=wrap;html=1;" parent="1" vertex="1">
          <mxGeometry x="780" y="1980" width="120" height="80" as="geometry" />
        </mxCell>
        <mxCell id="tAeaAUWml3lCQ0p2ullZ-59" value="" style="endArrow=classic;html=1;rounded=0;exitX=0;exitY=0.5;exitDx=0;exitDy=0;" parent="1" source="tAeaAUWml3lCQ0p2ullZ-65" target="tAeaAUWml3lCQ0p2ullZ-58" edge="1">
          <mxGeometry width="50" height="50" relative="1" as="geometry">
            <mxPoint x="1000" y="2080" as="sourcePoint" />
            <mxPoint x="1220" y="1890" as="targetPoint" />
          </mxGeometry>
        </mxCell>
        <mxCell id="tAeaAUWml3lCQ0p2ullZ-60" value="Authenticate via email" style="ellipse;whiteSpace=wrap;html=1;" parent="1" vertex="1">
          <mxGeometry x="1160" y="1920" width="120" height="80" as="geometry" />
        </mxCell>
        <mxCell id="tAeaAUWml3lCQ0p2ullZ-61" value="Include" style="endArrow=classic;html=1;rounded=0;exitX=1;exitY=0.5;exitDx=0;exitDy=0;dashed=1;dashPattern=8 8;entryX=0;entryY=0.5;entryDx=0;entryDy=0;" parent="1" source="tAeaAUWml3lCQ0p2ullZ-57" target="tAeaAUWml3lCQ0p2ullZ-58" edge="1">
          <mxGeometry width="50" height="50" relative="1" as="geometry">
            <mxPoint x="460" y="1840" as="sourcePoint" />
            <mxPoint x="740" y="2000" as="targetPoint" />
          </mxGeometry>
        </mxCell>
        <mxCell id="tAeaAUWml3lCQ0p2ullZ-62" value="Include" style="endArrow=classic;html=1;rounded=0;exitX=1;exitY=0.5;exitDx=0;exitDy=0;dashed=1;dashPattern=8 8;entryX=0;entryY=0;entryDx=0;entryDy=0;" parent="1" source="tAeaAUWml3lCQ0p2ullZ-56" target="tAeaAUWml3lCQ0p2ullZ-58" edge="1">
          <mxGeometry width="50" height="50" relative="1" as="geometry">
            <mxPoint x="460" y="1680" as="sourcePoint" />
            <mxPoint x="788" y="1801" as="targetPoint" />
          </mxGeometry>
        </mxCell>
        <mxCell id="tAeaAUWml3lCQ0p2ullZ-63" value="Include" style="endArrow=classic;html=1;rounded=0;dashed=1;dashPattern=8 8;entryX=0;entryY=1;entryDx=0;entryDy=0;exitX=1;exitY=0.5;exitDx=0;exitDy=0;" parent="1" source="tAeaAUWml3lCQ0p2ullZ-55" target="tAeaAUWml3lCQ0p2ullZ-58" edge="1">
          <mxGeometry width="50" height="50" relative="1" as="geometry">
            <mxPoint x="570" y="2250" as="sourcePoint" />
            <mxPoint x="788" y="2151" as="targetPoint" />
          </mxGeometry>
        </mxCell>
        <mxCell id="tAeaAUWml3lCQ0p2ullZ-64" value="Include" style="endArrow=classic;html=1;rounded=0;exitX=1;exitY=0.5;exitDx=0;exitDy=0;dashed=1;dashPattern=8 8;entryX=0;entryY=0.5;entryDx=0;entryDy=0;" parent="1" source="tAeaAUWml3lCQ0p2ullZ-53" target="tAeaAUWml3lCQ0p2ullZ-58" edge="1">
          <mxGeometry width="50" height="50" relative="1" as="geometry">
            <mxPoint x="490" y="1910" as="sourcePoint" />
            <mxPoint x="720" y="2040" as="targetPoint" />
          </mxGeometry>
        </mxCell>
        <mxCell id="tAeaAUWml3lCQ0p2ullZ-65" value="Authenticate via mobile number" style="ellipse;whiteSpace=wrap;html=1;" parent="1" vertex="1">
          <mxGeometry x="1160" y="2040" width="120" height="80" as="geometry" />
        </mxCell>
        <mxCell id="tAeaAUWml3lCQ0p2ullZ-66" value="" style="endArrow=classic;html=1;rounded=0;exitX=0;exitY=0.5;exitDx=0;exitDy=0;" parent="1" source="tAeaAUWml3lCQ0p2ullZ-60" target="tAeaAUWml3lCQ0p2ullZ-58" edge="1">
          <mxGeometry width="50" height="50" relative="1" as="geometry">
            <mxPoint x="1160" y="2130" as="sourcePoint" />
            <mxPoint x="900" y="2070" as="targetPoint" />
          </mxGeometry>
        </mxCell>
        <mxCell id="tAeaAUWml3lCQ0p2ullZ-67" value="" style="endArrow=none;html=1;rounded=0;entryX=1;entryY=0.5;entryDx=0;entryDy=0;endFill=0;exitX=0;exitY=0.5;exitDx=0;exitDy=0;" parent="1" source="tAeaAUWml3lCQ0p2ullZ-68" target="tAeaAUWml3lCQ0p2ullZ-60" edge="1">
          <mxGeometry width="50" height="50" relative="1" as="geometry">
            <mxPoint x="1450" y="1960" as="sourcePoint" />
            <mxPoint x="1280" y="2011" as="targetPoint" />
          </mxGeometry>
        </mxCell>
        <mxCell id="tAeaAUWml3lCQ0p2ullZ-68" value="Email authentication services" style="rounded=0;whiteSpace=wrap;html=1;" parent="1" vertex="1">
          <mxGeometry x="1450" y="1870" width="120" height="60" as="geometry" />
        </mxCell>
        <mxCell id="tAeaAUWml3lCQ0p2ullZ-69" value="Mobile authentication services" style="rounded=0;whiteSpace=wrap;html=1;" parent="1" vertex="1">
          <mxGeometry x="1450" y="2110" width="120" height="60" as="geometry" />
        </mxCell>
        <mxCell id="tAeaAUWml3lCQ0p2ullZ-70" value="" style="endArrow=none;html=1;rounded=0;entryX=1;entryY=0.5;entryDx=0;entryDy=0;endFill=0;exitX=0;exitY=0.5;exitDx=0;exitDy=0;" parent="1" source="tAeaAUWml3lCQ0p2ullZ-69" target="tAeaAUWml3lCQ0p2ullZ-65" edge="1">
          <mxGeometry width="50" height="50" relative="1" as="geometry">
            <mxPoint x="1460" y="1960" as="sourcePoint" />
            <mxPoint x="1290" y="1970" as="targetPoint" />
          </mxGeometry>
        </mxCell>
        <mxCell id="tAeaAUWml3lCQ0p2ullZ-71" value="" style="endArrow=none;html=1;rounded=0;entryX=1;entryY=0.5;entryDx=0;entryDy=0;endFill=0;exitX=0;exitY=0.5;exitDx=0;exitDy=0;" parent="1" source="tAeaAUWml3lCQ0p2ullZ-73" target="tAeaAUWml3lCQ0p2ullZ-65" edge="1">
          <mxGeometry width="50" height="50" relative="1" as="geometry">
            <mxPoint x="1770" y="2040" as="sourcePoint" />
            <mxPoint x="1600" y="2050" as="targetPoint" />
          </mxGeometry>
        </mxCell>
        <mxCell id="tAeaAUWml3lCQ0p2ullZ-72" value="" style="endArrow=none;html=1;rounded=0;entryX=1;entryY=0.5;entryDx=0;entryDy=0;endFill=0;exitX=0;exitY=0.5;exitDx=0;exitDy=0;" parent="1" source="tAeaAUWml3lCQ0p2ullZ-73" target="tAeaAUWml3lCQ0p2ullZ-60" edge="1">
          <mxGeometry width="50" height="50" relative="1" as="geometry">
            <mxPoint x="1710" y="1980" as="sourcePoint" />
            <mxPoint x="1310" y="1990" as="targetPoint" />
          </mxGeometry>
        </mxCell>
        <mxCell id="tAeaAUWml3lCQ0p2ullZ-73" value="Organization authentication services" style="rounded=0;whiteSpace=wrap;html=1;" parent="1" vertex="1">
          <mxGeometry x="1450" y="1990" width="120" height="60" as="geometry" />
        </mxCell>
        <mxCell id="tAeaAUWml3lCQ0p2ullZ-74" value="" style="endArrow=none;html=1;rounded=0;endFill=0;exitX=0;exitY=0.5;exitDx=0;exitDy=0;" parent="1" source="tAeaAUWml3lCQ0p2ullZ-57" edge="1">
          <mxGeometry width="50" height="50" relative="1" as="geometry">
            <mxPoint x="220" y="1850" as="sourcePoint" />
            <mxPoint x="150" y="2030" as="targetPoint" />
          </mxGeometry>
        </mxCell>
        <mxCell id="tAeaAUWml3lCQ0p2ullZ-75" value="" style="endArrow=none;html=1;rounded=0;endFill=0;exitX=0;exitY=0.5;exitDx=0;exitDy=0;" parent="1" source="tAeaAUWml3lCQ0p2ullZ-56" edge="1">
          <mxGeometry width="50" height="50" relative="1" as="geometry">
            <mxPoint x="280" y="1660" as="sourcePoint" />
            <mxPoint x="150" y="2030" as="targetPoint" />
          </mxGeometry>
        </mxCell>
        <mxCell id="tAeaAUWml3lCQ0p2ullZ-76" value="" style="endArrow=none;html=1;rounded=0;endFill=0;exitX=0;exitY=0.5;exitDx=0;exitDy=0;" parent="1" source="tAeaAUWml3lCQ0p2ullZ-53" edge="1">
          <mxGeometry width="50" height="50" relative="1" as="geometry">
            <mxPoint x="380" y="2040" as="sourcePoint" />
            <mxPoint x="150" y="2030" as="targetPoint" />
          </mxGeometry>
        </mxCell>
        <mxCell id="tAeaAUWml3lCQ0p2ullZ-77" value="" style="endArrow=none;html=1;rounded=0;endFill=0;exitX=0;exitY=0.5;exitDx=0;exitDy=0;" parent="1" source="tAeaAUWml3lCQ0p2ullZ-55" edge="1">
          <mxGeometry width="50" height="50" relative="1" as="geometry">
            <mxPoint x="270" y="2389.69696969697" as="sourcePoint" />
            <mxPoint x="150" y="2030" as="targetPoint" />
          </mxGeometry>
        </mxCell>
        <mxCell id="tAeaAUWml3lCQ0p2ullZ-78" value="Modify Internship Program" style="ellipse;whiteSpace=wrap;html=1;" parent="1" vertex="1">
          <mxGeometry x="780" y="1840" width="120" height="80" as="geometry" />
        </mxCell>
        <mxCell id="tAeaAUWml3lCQ0p2ullZ-79" value="Schedule Meeting" style="ellipse;whiteSpace=wrap;html=1;" parent="1" vertex="1">
          <mxGeometry x="1160" y="1670" width="120" height="80" as="geometry" />
        </mxCell>
        <mxCell id="tAeaAUWml3lCQ0p2ullZ-80" value="Set Assessment Exam" style="ellipse;whiteSpace=wrap;html=1;" parent="1" vertex="1">
          <mxGeometry x="990" y="1470" width="120" height="80" as="geometry" />
        </mxCell>
        <mxCell id="tAeaAUWml3lCQ0p2ullZ-82" value="Post Materials" style="ellipse;whiteSpace=wrap;html=1;" parent="1" vertex="1">
          <mxGeometry x="1110" y="1550" width="120" height="80" as="geometry" />
        </mxCell>
        <mxCell id="tAeaAUWml3lCQ0p2ullZ-84" value="Extend" style="endArrow=classic;html=1;rounded=0;dashed=1;dashPattern=8 8;" parent="1" source="tAeaAUWml3lCQ0p2ullZ-80" target="tAeaAUWml3lCQ0p2ullZ-78" edge="1">
          <mxGeometry width="50" height="50" relative="1" as="geometry">
            <mxPoint x="980" y="1565" as="sourcePoint" />
            <mxPoint x="930" y="1855" as="targetPoint" />
          </mxGeometry>
        </mxCell>
        <mxCell id="tAeaAUWml3lCQ0p2ullZ-85" value="Extend" style="endArrow=classic;html=1;rounded=0;dashed=1;dashPattern=8 8;exitX=0;exitY=1;exitDx=0;exitDy=0;entryX=1;entryY=0;entryDx=0;entryDy=0;" parent="1" source="tAeaAUWml3lCQ0p2ullZ-82" target="tAeaAUWml3lCQ0p2ullZ-78" edge="1">
          <mxGeometry width="50" height="50" relative="1" as="geometry">
            <mxPoint x="910" y="1570" as="sourcePoint" />
            <mxPoint x="860" y="1860" as="targetPoint" />
          </mxGeometry>
        </mxCell>
        <mxCell id="tAeaAUWml3lCQ0p2ullZ-86" value="Extend" style="endArrow=classic;html=1;rounded=0;dashed=1;dashPattern=8 8;exitX=0;exitY=0.5;exitDx=0;exitDy=0;entryX=1;entryY=0.5;entryDx=0;entryDy=0;" parent="1" source="tAeaAUWml3lCQ0p2ullZ-79" target="tAeaAUWml3lCQ0p2ullZ-78" edge="1">
          <mxGeometry width="50" height="50" relative="1" as="geometry">
            <mxPoint x="920" y="1580" as="sourcePoint" />
            <mxPoint x="870" y="1870" as="targetPoint" />
          </mxGeometry>
        </mxCell>
        <mxCell id="tAeaAUWml3lCQ0p2ullZ-87" value="Provide Feedback" style="ellipse;whiteSpace=wrap;html=1;" parent="1" vertex="1">
          <mxGeometry x="780" y="2120" width="120" height="80" as="geometry" />
        </mxCell>
        <mxCell id="tAeaAUWml3lCQ0p2ullZ-88" value="Schedule Meeting" style="ellipse;whiteSpace=wrap;html=1;" parent="1" vertex="1">
          <mxGeometry x="780" y="2210" width="120" height="80" as="geometry" />
        </mxCell>
        <mxCell id="tAeaAUWml3lCQ0p2ullZ-89" value="Extend" style="endArrow=classic;html=1;rounded=0;dashed=1;dashPattern=8 8;exitX=0;exitY=0.5;exitDx=0;exitDy=0;entryX=1;entryY=1;entryDx=0;entryDy=0;" parent="1" source="tAeaAUWml3lCQ0p2ullZ-87" target="tAeaAUWml3lCQ0p2ullZ-53" edge="1">
          <mxGeometry width="50" height="50" relative="1" as="geometry">
            <mxPoint x="750" y="2070" as="sourcePoint" />
            <mxPoint x="700" y="2360" as="targetPoint" />
          </mxGeometry>
        </mxCell>
        <mxCell id="tAeaAUWml3lCQ0p2ullZ-90" value="Extend" style="endArrow=classic;html=1;rounded=0;dashed=1;dashPattern=8 8;exitX=0;exitY=0.5;exitDx=0;exitDy=0;entryX=1;entryY=1;entryDx=0;entryDy=0;" parent="1" source="tAeaAUWml3lCQ0p2ullZ-88" target="tAeaAUWml3lCQ0p2ullZ-53" edge="1">
          <mxGeometry width="50" height="50" relative="1" as="geometry">
            <mxPoint x="790" y="2170" as="sourcePoint" />
            <mxPoint x="452" y="2198" as="targetPoint" />
          </mxGeometry>
        </mxCell>
        <mxCell id="tAeaAUWml3lCQ0p2ullZ-91" value="Extend" style="endArrow=classic;html=1;rounded=0;dashed=1;dashPattern=8 8;entryX=1;entryY=0;entryDx=0;entryDy=0;exitX=0;exitY=1;exitDx=0;exitDy=0;" parent="1" source="tAeaAUWml3lCQ0p2ullZ-93" target="tAeaAUWml3lCQ0p2ullZ-57" edge="1">
          <mxGeometry width="50" height="50" relative="1" as="geometry">
            <mxPoint x="650" y="1620" as="sourcePoint" />
            <mxPoint x="510" y="1840" as="targetPoint" />
          </mxGeometry>
        </mxCell>
        <mxCell id="tAeaAUWml3lCQ0p2ullZ-92" value="Extend" style="endArrow=classic;html=1;rounded=0;dashed=1;dashPattern=8 8;exitX=0;exitY=0.5;exitDx=0;exitDy=0;entryX=1;entryY=0;entryDx=0;entryDy=0;" parent="1" source="tAeaAUWml3lCQ0p2ullZ-78" target="tAeaAUWml3lCQ0p2ullZ-57" edge="1">
          <mxGeometry width="50" height="50" relative="1" as="geometry">
            <mxPoint x="700" y="1800" as="sourcePoint" />
            <mxPoint x="470" y="1860" as="targetPoint" />
          </mxGeometry>
        </mxCell>
        <mxCell id="tAeaAUWml3lCQ0p2ullZ-93" value="Post Internship Program" style="ellipse;whiteSpace=wrap;html=1;" parent="1" vertex="1">
          <mxGeometry x="670" y="1670" width="120" height="80" as="geometry" />
        </mxCell>
        <mxCell id="tAeaAUWml3lCQ0p2ullZ-94" value="Intern" style="shape=umlActor;verticalLabelPosition=bottom;verticalAlign=top;html=1;outlineConnect=0;" parent="1" vertex="1">
          <mxGeometry x="1080" y="2220" width="30" height="60" as="geometry" />
        </mxCell>
        <mxCell id="tAeaAUWml3lCQ0p2ullZ-95" value="" style="endArrow=none;html=1;rounded=0;entryX=1;entryY=0.5;entryDx=0;entryDy=0;endFill=0;" parent="1" source="tAeaAUWml3lCQ0p2ullZ-94" target="tAeaAUWml3lCQ0p2ullZ-88" edge="1">
          <mxGeometry width="50" height="50" relative="1" as="geometry">
            <mxPoint x="1090" y="2300" as="sourcePoint" />
            <mxPoint x="920" y="2240" as="targetPoint" />
          </mxGeometry>
        </mxCell>
        <mxCell id="tAeaAUWml3lCQ0p2ullZ-96" value="Delete Internship Program" style="ellipse;whiteSpace=wrap;html=1;" parent="1" vertex="1">
          <mxGeometry x="670" y="1560" width="120" height="80" as="geometry" />
        </mxCell>
        <mxCell id="tAeaAUWml3lCQ0p2ullZ-97" value="Extend" style="endArrow=classic;html=1;rounded=0;dashed=1;dashPattern=8 8;entryX=0.5;entryY=0;entryDx=0;entryDy=0;exitX=0;exitY=1;exitDx=0;exitDy=0;" parent="1" source="tAeaAUWml3lCQ0p2ullZ-96" target="tAeaAUWml3lCQ0p2ullZ-57" edge="1">
          <mxGeometry width="50" height="50" relative="1" as="geometry">
            <mxPoint x="626" y="1680" as="sourcePoint" />
            <mxPoint x="380" y="1794" as="targetPoint" />
          </mxGeometry>
        </mxCell>
        <mxCell id="tAeaAUWml3lCQ0p2ullZ-98" value="Reject Intern" style="ellipse;whiteSpace=wrap;html=1;" parent="1" vertex="1">
          <mxGeometry x="490" y="1350" width="120" height="80" as="geometry" />
        </mxCell>
        <mxCell id="tAeaAUWml3lCQ0p2ullZ-99" value="Accept Intern" style="ellipse;whiteSpace=wrap;html=1;" parent="1" vertex="1">
          <mxGeometry x="530" y="1460" width="120" height="80" as="geometry" />
        </mxCell>
        <mxCell id="tAeaAUWml3lCQ0p2ullZ-100" value="" style="endArrow=classic;html=1;rounded=0;entryX=1;entryY=0;entryDx=0;entryDy=0;exitX=0;exitY=1;exitDx=0;exitDy=0;" parent="1" source="tAeaAUWml3lCQ0p2ullZ-99" target="tAeaAUWml3lCQ0p2ullZ-56" edge="1">
          <mxGeometry width="50" height="50" relative="1" as="geometry">
            <mxPoint x="628" y="1320" as="sourcePoint" />
            <mxPoint x="340" y="1532" as="targetPoint" />
          </mxGeometry>
        </mxCell>
        <mxCell id="tAeaAUWml3lCQ0p2ullZ-101" value="" style="endArrow=classic;html=1;rounded=0;exitX=0;exitY=1;exitDx=0;exitDy=0;" parent="1" source="tAeaAUWml3lCQ0p2ullZ-98" target="tAeaAUWml3lCQ0p2ullZ-56" edge="1">
          <mxGeometry width="50" height="50" relative="1" as="geometry">
            <mxPoint x="538" y="1380" as="sourcePoint" />
            <mxPoint x="250" y="1592" as="targetPoint" />
          </mxGeometry>
        </mxCell>
        <mxCell id="tAeaAUWml3lCQ0p2ullZ-103" value="View CV" style="ellipse;whiteSpace=wrap;html=1;" parent="1" vertex="1">
          <mxGeometry x="350" y="1330" width="120" height="80" as="geometry" />
        </mxCell>
        <mxCell id="tAeaAUWml3lCQ0p2ullZ-105" value="Extend" style="endArrow=classic;html=1;rounded=0;dashed=1;dashPattern=8 8;entryX=0.5;entryY=0;entryDx=0;entryDy=0;exitX=0.5;exitY=1;exitDx=0;exitDy=0;" parent="1" source="tAeaAUWml3lCQ0p2ullZ-103" target="tAeaAUWml3lCQ0p2ullZ-56" edge="1">
          <mxGeometry width="50" height="50" relative="1" as="geometry">
            <mxPoint x="514" y="1380" as="sourcePoint" />
            <mxPoint x="226" y="1592" as="targetPoint" />
          </mxGeometry>
        </mxCell>
        <mxCell id="tAeaAUWml3lCQ0p2ullZ-106" value="Include" style="endArrow=classic;html=1;rounded=0;dashed=1;dashPattern=8 8;exitX=0.5;exitY=0;exitDx=0;exitDy=0;entryX=0.5;entryY=1;entryDx=0;entryDy=0;" parent="1" source="tAeaAUWml3lCQ0p2ullZ-47" target="tAeaAUWml3lCQ0p2ullZ-107" edge="1">
          <mxGeometry width="50" height="50" relative="1" as="geometry">
            <mxPoint x="710" y="390" as="sourcePoint" />
            <mxPoint x="700" y="290" as="targetPoint" />
          </mxGeometry>
        </mxCell>
        <mxCell id="tAeaAUWml3lCQ0p2ullZ-107" value="Upload CV" style="ellipse;whiteSpace=wrap;html=1;" parent="1" vertex="1">
          <mxGeometry x="650" y="200" width="120" height="80" as="geometry" />
        </mxCell>
      </root>
    </mxGraphModel>
  </diagram>
</mxfile>
